<?xml version="1.0" standalone="no"?>
<!DOCTYPE svg PUBLIC "-//W3C//DTD SVG 20010904//EN"
 "http://www.w3.org/TR/2001/REC-SVG-20010904/DTD/svg10.dtd">
<svg version="1.0" xmlns="http://www.w3.org/2000/svg"
 width="500.000000pt" height="500.000000pt" viewBox="0 0 500.000000 500.000000"
 preserveAspectRatio="xMidYMid meet">

<g transform="translate(0.000000,500.000000) scale(0.100000,-0.100000)"
fill="#000000" stroke="none">
<path d="M80 4911 c-7 -14 -9 -778 -8 -2428 l3 -2408 2425 0 2425 0 0 2425 0
2425 -2417 3 c-2384 2 -2417 2 -2428 -17z m1985 -1866 c60 -15 153 -55 181
-77 99 -75 214 -231 214 -287 0 -20 -4 -21 -144 -21 -138 0 -144 1 -159 23
-67 100 -177 151 -279 127 -71 -17 -102 -34 -144 -78 -115 -120 -122 -313 -18
-449 53 -70 172 -113 257 -92 81 19 119 45 175 117 l34 42 133 0 c166 0 168
-1 119 -98 -98 -197 -287 -312 -513 -312 -216 0 -407 119 -500 311 -98 205
-75 420 65 599 66 84 162 152 254 179 25 7 56 17 70 21 42 14 196 11 255 -5z
m1153 4 c165 -38 306 -147 377 -291 20 -42 34 -81 31 -87 -5 -7 -57 -11 -145
-11 l-137 0 -47 55 c-50 58 -81 76 -162 95 -42 10 -59 10 -107 -4 -69 -21
-130 -63 -162 -114 -123 -196 -36 -450 172 -501 97 -24 204 20 272 112 l35 47
138 0 c111 0 139 -3 143 -15 3 -8 -6 -40 -21 -72 -62 -136 -164 -230 -320
-293 -79 -33 -237 -40 -331 -15 -161 42 -296 151 -366 295 -46 94 -57 143 -58
251 0 241 159 463 380 528 25 7 56 17 70 21 37 12 184 12 238 -1z m-2047 -539
c115 -289 207 -531 204 -537 -3 -10 -42 -13 -148 -13 l-143 0 -24 75 -24 75
-187 0 -187 0 -11 -30 c-6 -17 -16 -45 -23 -62 -20 -58 -20 -58 -169 -58
l-139 0 0 25 c0 14 5 33 10 43 9 15 236 575 327 807 45 115 48 123 68 168 l16
38 110 -3 110 -3 210 -525z m3106 503 c83 -201 403 -1022 403 -1035 0 -16 -14
-18 -144 -18 l-144 0 -24 73 -25 72 -189 3 -189 2 -12 -37 c-6 -21 -19 -55
-27 -75 l-16 -38 -140 0 c-104 0 -142 3 -145 13 -3 7 60 174 140 372 80 198
176 435 212 528 l66 167 111 0 111 0 12 -27z"/>
<path d="M793 2513 l-51 -168 54 -3 c30 -2 78 -2 107 0 l53 3 -50 168 c-28 92
-53 167 -57 167 -3 0 -29 -75 -56 -167z"/>
<path d="M4150 2688 c0 -2 -22 -78 -50 -169 -27 -90 -50 -167 -50 -171 0 -5
47 -8 105 -8 58 0 105 3 105 6 0 10 -100 338 -105 342 -3 3 -5 3 -5 0z"/>
</g>
</svg>
