<?xml version="1.0" encoding="UTF-8"?>
<svg version="1.1" xmlns="http://www.w3.org/2000/svg" width="225" height="225">
<path d="M0 0 C0.33 -0.33 0.66 -0.66 1 -1 C3.11681317 -1.0942174 5.23680758 -1.11742761 7.35571289 -1.11352539 C8.01910172 -1.11367142 8.68249054 -1.11381744 9.36598206 -1.1139679 C11.56823956 -1.11326881 13.77041345 -1.10547665 15.97265625 -1.09765625 C17.49580336 -1.09579206 19.01895107 -1.09436816 20.542099 -1.09336853 C24.55837651 -1.08954346 28.57461808 -1.07971328 32.59088135 -1.06866455 C36.68623366 -1.05845019 40.78159176 -1.05387086 44.87695312 -1.04882812 C52.91798712 -1.03809099 60.95898495 -1.02049429 69 -1 C69 4.61 69 10.22 69 16 C67.02 16 65.04 16 63 16 C62.01 12.7 61.02 9.4 60 6 C53.565 5.505 53.565 5.505 47 5 C47.11795925 9.68157901 47.24218549 14.36293288 47.37231445 19.04418945 C47.41572146 20.637893 47.45739219 22.2316448 47.49731445 23.82543945 C47.55487807 26.11163908 47.61861149 28.39759449 47.68359375 30.68359375 C47.70866249 31.7586039 47.70866249 31.7586039 47.73423767 32.85533142 C47.55018654 36.21527382 47.55018654 36.21527382 49 39 C51.32817964 39.36760731 53.6618385 39.70241581 56 40 C56 41.98 56 43.96 56 46 C44.78 46 33.56 46 22 46 C22 44.02 22 42.04 22 40 C25.465 39.505 25.465 39.505 29 39 C29.33 27.78 29.66 16.56 30 5 C24.06 5.495 24.06 5.495 18 6 C15.66915342 10.17155008 15.66915342 10.17155008 15 16 C10.38 16 5.76 16 1 16 C0.505 14.7625 0.01 13.525 -0.5 12.25 C-2.55228479 8.18863643 -4.60974382 6.37056823 -8.78515625 4.62109375 C-13.92173356 3.18067789 -18.28682277 3.41816622 -23.3125 5.125 C-27.39080886 7.97033176 -29.44141663 11.32424989 -31 16 C-31.81587483 26.03627892 -31.81587483 26.03627892 -28 35 C-22.45590995 40.1282833 -17.75692227 40.40480597 -10.43359375 40.34765625 C-2.81959228 39.57672777 3.09738968 35.71971204 8 30 C8.56813173 33.15628742 8.74212029 35.8626225 8 39 C2.56915087 44.87418376 -5.35227154 46.89637426 -13.11328125 47.3359375 C-14.51277879 47.36504231 -15.91270254 47.3777387 -17.3125 47.375 C-18.04799072 47.37556396 -18.78348145 47.37612793 -19.54125977 47.37670898 C-26.72127169 47.2329988 -32.61306154 45.19346923 -39 42 C-39 43.32 -39 44.64 -39 46 C-50.22 46 -61.44 46 -73 46 C-73 44.02 -73 42.04 -73 40 C-71.02 40 -69.04 40 -67 40 C-67.99 36.37 -68.98 32.74 -70 29 C-72.02253906 29.6496875 -72.02253906 29.6496875 -74.0859375 30.3125 C-75.84891019 30.87515086 -77.61193366 31.43764263 -79.375 32 C-80.26445313 32.28617188 -81.15390625 32.57234375 -82.0703125 32.8671875 C-82.92109375 33.13789062 -83.771875 33.40859375 -84.6484375 33.6875 C-85.43395996 33.93886719 -86.21948242 34.19023438 -87.02880859 34.44921875 C-89 35 -89 35 -91 35 C-91.33 36.32 -91.66 37.64 -92 39 C-90.02 39.33 -88.04 39.66 -86 40 C-86 41.98 -86 43.96 -86 46 C-93.59 46 -101.18 46 -109 46 C-109.33 44.35 -109.66 42.7 -110 41 C-108.96875 40.690625 -107.9375 40.38125 -106.875 40.0625 C-98.22561282 36.23947087 -94.40870109 24.22757276 -90.25390625 16.26171875 C-82.52810729 1.52810729 -82.52810729 1.52810729 -80 -1 C-77.81360547 -1.07258946 -75.62499611 -1.08373783 -73.4375 -1.0625 C-71.64119141 -1.04896484 -71.64119141 -1.04896484 -69.80859375 -1.03515625 C-68.88175781 -1.02355469 -67.95492187 -1.01195313 -67 -1 C-65.69578438 1.60843124 -64.39168602 4.21692024 -63.08813477 6.82568359 C-61.98523572 9.03017667 -60.88024495 11.23362447 -59.77319336 13.43603516 C-57.40684333 18.14919879 -55.04322265 22.85780374 -52.8203125 27.640625 C-52.51552979 28.28628418 -52.21074707 28.93194336 -51.89672852 29.59716797 C-51.11891879 31.25476539 -50.35762539 32.92008514 -49.59765625 34.5859375 C-47.70167118 37.45077558 -46.2582861 38.08481304 -43 39 C-43.34933594 38.52949219 -43.69867188 38.05898437 -44.05859375 37.57421875 C-44.51363281 36.95160156 -44.96867187 36.32898438 -45.4375 35.6875 C-45.88996094 35.07261719 -46.34242187 34.45773438 -46.80859375 33.82421875 C-49.93339321 29.03968974 -49.61733817 23.48426006 -49 18 C-46.72969085 10.57375511 -42.76478364 5.71946867 -36 2 C-24.68654837 -3.89626144 -12.04165583 -3.1688568 0 0 Z M8 2 C8 4.64 8 7.28 8 10 C8.33 10 8.66 10 9 10 C9 7.36 9 4.72 9 2 C8.67 2 8.34 2 8 2 Z M-79 11 C-81.64 16.28 -84.28 21.56 -87 27 C-85.411875 26.54625 -83.82375 26.0925 -82.1875 25.625 C-81.29417969 25.36976562 -80.40085937 25.11453125 -79.48046875 24.8515625 C-76.79532104 24.04733339 -76.79532104 24.04733339 -74 22 C-74.45082469 20.53932801 -74.91093537 19.08151968 -75.375 17.625 C-75.63023438 16.81289062 -75.88546875 16.00078125 -76.1484375 15.1640625 C-76.89854283 12.83540815 -76.89854283 12.83540815 -79 11 Z " fill="#F9FCFD" transform="translate(128,90)"/>
<path d="M0 0 C1.79244141 0.01740234 1.79244141 0.01740234 3.62109375 0.03515625 C5.41740234 0.04869141 5.41740234 0.04869141 7.25 0.0625 C8.17683594 0.07410156 9.10367188 0.08570312 10.05859375 0.09765625 C11.36284183 2.70615241 12.66703135 5.31467762 13.97094727 7.92333984 C15.07325917 10.1273113 16.17661646 12.33076023 17.28100586 14.53369141 C19.64763968 19.25716945 22.01313809 23.97972429 24.30859375 28.73828125 C24.6223999 29.38394043 24.93620605 30.02959961 25.25952148 30.69482422 C26.06408463 32.3550194 26.86048278 34.01916459 27.65625 35.68359375 C29.74040868 39.27136552 31.82477511 40.02632175 35.74609375 41.22265625 C36.83921875 41.51140625 37.93234375 41.80015625 39.05859375 42.09765625 C38.72859375 43.74765625 38.39859375 45.39765625 38.05859375 47.09765625 C26.83859375 47.09765625 15.61859375 47.09765625 4.05859375 47.09765625 C4.05859375 45.11765625 4.05859375 43.13765625 4.05859375 41.09765625 C6.03859375 41.09765625 8.01859375 41.09765625 10.05859375 41.09765625 C9.06859375 37.46765625 8.07859375 33.83765625 7.05859375 30.09765625 C5.03605469 30.74734375 5.03605469 30.74734375 2.97265625 31.41015625 C1.20968356 31.97280711 -0.55333991 32.53529888 -2.31640625 33.09765625 C-3.20585938 33.38382813 -4.0953125 33.67 -5.01171875 33.96484375 C-5.8625 34.23554687 -6.71328125 34.50625 -7.58984375 34.78515625 C-8.37536621 35.03652344 -9.16088867 35.28789063 -9.97021484 35.546875 C-11.94140625 36.09765625 -11.94140625 36.09765625 -13.94140625 36.09765625 C-14.27140625 37.41765625 -14.60140625 38.73765625 -14.94140625 40.09765625 C-12.96140625 40.42765625 -10.98140625 40.75765625 -8.94140625 41.09765625 C-8.94140625 43.07765625 -8.94140625 45.05765625 -8.94140625 47.09765625 C-16.53140625 47.09765625 -24.12140625 47.09765625 -31.94140625 47.09765625 C-32.27140625 45.44765625 -32.60140625 43.79765625 -32.94140625 42.09765625 C-31.91015625 41.78828125 -30.87890625 41.47890625 -29.81640625 41.16015625 C-21.16701907 37.33712712 -17.35010734 25.32522901 -13.1953125 17.359375 C-4.16516575 0.13828572 -4.16516575 0.13828572 0 0 Z M-1.94140625 12.09765625 C-4.58140625 17.37765625 -7.22140625 22.65765625 -9.94140625 28.09765625 C-8.35328125 27.64390625 -6.76515625 27.19015625 -5.12890625 26.72265625 C-4.23558594 26.46742187 -3.34226562 26.2121875 -2.421875 25.94921875 C0.26327271 25.14498964 0.26327271 25.14498964 3.05859375 23.09765625 C2.60776906 21.63698426 2.14765838 20.17917593 1.68359375 18.72265625 C1.42835937 17.91054687 1.173125 17.0984375 0.91015625 16.26171875 C0.16005092 13.9330644 0.16005092 13.9330644 -1.94140625 12.09765625 Z " fill="#F7F9FA" transform="translate(50.94140625,88.90234375)"/>
<path d="M0 0 C1.81640625 1.58984375 1.81640625 1.58984375 3 3 C1.42799513 4.57200487 -0.38610728 4.42564937 -2.5625 4.75 C-8.46115071 5.75897973 -14.01876208 7.46285226 -19.69165039 9.32324219 C-24.82405818 11 -24.82405818 11 -27 11 C-27.33 12.32 -27.66 13.64 -28 15 C-26.02 15.33 -24.04 15.66 -22 16 C-22 17.98 -22 19.96 -22 22 C-29.59 22 -37.18 22 -45 22 C-45.33 20.35 -45.66 18.7 -46 17 C-44.453125 16.5359375 -44.453125 16.5359375 -42.875 16.0625 C-36.10622687 13.18508632 -32.93769773 5.36501175 -30 -1 C-27.03 -1 -24.06 -1 -21 -1 C-21 -0.01 -21 0.98 -21 2 C-20.10861328 1.53207031 -20.10861328 1.53207031 -19.19921875 1.0546875 C-12.43379632 -2.12285149 -7.09934789 -2.63420063 0 0 Z " fill="#F1F5F7" transform="translate(64,114)"/>
<path d="M0 0 C12.54 0 25.08 0 38 0 C38 5.61 38 11.22 38 17 C36.02 17 34.04 17 32 17 C30.515 12.05 30.515 12.05 29 7 C28.09636719 6.97421875 27.19273437 6.9484375 26.26171875 6.921875 C25.08222656 6.86515625 23.90273437 6.8084375 22.6875 6.75 C21.51574219 6.70359375 20.34398437 6.6571875 19.13671875 6.609375 C15.3226927 5.86841851 15.22047472 4.96063296 13 2 C9.81403338 1.29875226 9.81403338 1.29875226 6.3125 1.25 C5.13300781 1.19328125 3.95351562 1.1365625 2.73828125 1.078125 C1.38283203 1.03945312 1.38283203 1.03945312 0 1 C0 0.67 0 0.34 0 0 Z " fill="#F0F8FC" transform="translate(159,89)"/>
<path d="M0 0 C1.8046875 1.59375 1.8046875 1.59375 3 3 C1.42799513 4.57200487 -0.38610728 4.42564937 -2.5625 4.75 C-10.2676322 6.07146067 -17.59010098 8.56412354 -25 11 C-25.66 10.34 -26.32 9.68 -27 9 C-25.54752429 5.36881072 -24.5942625 3.37816704 -21.25 1.25 C-13.76426287 -1.62912966 -7.66972974 -3.09996045 0 0 Z " fill="#C2323E" transform="translate(64,114)"/>
<path d="M0 0 C1.98 0 3.96 0 6 0 C5.67 0.99 5.34 1.98 5 3 C4.67 2.34 4.34 1.68 4 1 C3.34 1 2.68 1 2 1 C2 1.99 2 2.98 2 4 C6.43737712 4.08690253 10.87453634 4.14035926 15.3125 4.1875 C17.20645508 4.22520508 17.20645508 4.22520508 19.13867188 4.26367188 C20.95141602 4.27817383 20.95141602 4.27817383 22.80078125 4.29296875 C24.47394409 4.31653442 24.47394409 4.31653442 26.1809082 4.34057617 C29.03204849 4.24821791 29.03204849 4.24821791 30.88745117 2.48168945 C31.25459229 1.99273193 31.6217334 1.50377441 32 1 C30.68 0.67 29.36 0.34 28 0 C29.98 0 31.96 0 34 0 C34 1.98 34 3.96 34 6 C22.78 6 11.56 6 0 6 C0 4.02 0 2.04 0 0 Z " fill="#ECF9FD" transform="translate(150,130)"/>
<path d="M0 0 C2.13745922 0.25146579 3.45925779 0.45925779 5 2 C5.125 4.5 5.125 4.5 5 7 C4 8 4 8 1.4375 8.0625 C0.633125 8.041875 -0.17125 8.02125 -1 8 C-1.66 6.35 -2.32 4.7 -3 3 C-1.75 1.4375 -1.75 1.4375 0 0 Z " fill="#ABB5C6" transform="translate(201,89)"/>
<path d="M0 0 C2 1.5 2 1.5 3 3 C2 4 2 4 -1.16015625 4.09765625 C-3.09181641 4.08025391 -3.09181641 4.08025391 -5.0625 4.0625 C-6.35285156 4.05347656 -7.64320312 4.04445313 -8.97265625 4.03515625 C-9.97167969 4.02355469 -10.97070312 4.01195313 -12 4 C-11.67 3.01 -11.34 2.02 -11 1 C-7.26274081 -0.24575306 -3.91147543 -0.48893443 0 0 Z " fill="#D32228" transform="translate(64,114)"/>
<path d="M0 0 C-0.4375 2.375 -0.4375 2.375 -2 5 C-4.94119871 6.07001562 -7.90584243 6.57343918 -11 7 C-10.34 5.68 -9.68 4.36 -9 3 C-8.01 3 -7.02 3 -6 3 C-6 2.34 -6 1.68 -6 1 C-3 0 -3 0 0 0 Z " fill="#E11C24" transform="translate(50,116)"/>
</svg>
