<?xml version="1.0" standalone="no"?>
<!DOCTYPE svg PUBLIC "-//W3C//DTD SVG 20010904//EN"
 "http://www.w3.org/TR/2001/REC-SVG-20010904/DTD/svg10.dtd">
<svg version="1.0" xmlns="http://www.w3.org/2000/svg"
 width="266.000000pt" height="190.000000pt" viewBox="0 0 266.000000 190.000000"
 preserveAspectRatio="xMidYMid meet">

<g transform="translate(0.000000,190.000000) scale(0.100000,-0.100000)"
fill="#000000" stroke="none">
<path d="M1162 1648 l-42 -9 117 -125 118 -125 7 47 c8 56 1 69 -94 160 l-63
61 -43 -9z"/>
<path d="M1460 1649 c-1 -2 -20 -143 -44 -314 -24 -170 -43 -311 -42 -312 1
-1 20 9 42 22 l40 24 38 281 c21 155 36 283 34 286 -6 5 -68 17 -68 13z"/>
<path d="M1013 1592 l-31 -17 173 -181 c148 -154 174 -178 179 -160 17 62 11
73 -136 227 -78 82 -144 149 -147 149 -3 -1 -20 -9 -38 -18z"/>
<path d="M1596 1598 c-7 -24 -66 -472 -62 -475 2 -2 19 6 39 17 41 24 39 16
67 235 11 88 23 170 26 182 3 17 -3 26 -25 38 -36 18 -41 19 -45 3z"/>
<path d="M896 1518 l-29 -25 219 -232 219 -231 8 46 8 46 -75 81 c-42 45 -131
140 -198 211 l-123 129 -29 -25z"/>
<path d="M1730 1533 c0 -4 -9 -71 -20 -148 -27 -191 -28 -182 18 -154 20 12
38 23 39 23 0 1 8 52 17 115 15 108 15 116 -1 134 -21 23 -53 41 -53 30z"/>
<path d="M895 1315 c-5 -2 -49 -7 -98 -10 l-88 -7 -19 -39 c-15 -28 -17 -39
-8 -39 28 0 274 22 297 26 l24 5 -34 35 c-30 31 -48 38 -74 29z"/>
<path d="M1682 1126 c-151 -90 -270 -166 -265 -169 4 -2 25 -10 45 -16 l38
-12 237 142 c131 78 241 145 245 148 3 3 -1 21 -10 38 l-17 33 -273 -164z"/>
<path d="M885 1169 c-99 -10 -192 -18 -207 -18 -22 -1 -29 -7 -37 -38 -6 -20
-9 -38 -8 -40 2 -1 114 7 250 20 l246 22 -32 36 -32 36 -180 -18z"/>
<path d="M1786 1023 l-209 -126 44 -17 c35 -14 48 -15 64 -5 11 6 93 55 182
109 l161 97 -9 32 c-5 18 -9 33 -9 34 0 9 -37 -11 -224 -124z"/>
<path d="M860 1024 c-129 -12 -236 -23 -237 -23 -2 -1 -3 -17 -3 -36 0 -43
-30 -42 324 -10 153 14 287 25 299 25 19 0 18 3 -13 35 -41 42 -36 42 -370 9z"/>
<path d="M1905 928 c-71 -44 -136 -83 -144 -87 -10 -6 -1 -13 32 -26 l45 -17
97 58 c53 32 99 63 102 70 2 6 3 27 1 46 l-3 34 -130 -78z"/>
<path d="M1210 912 l-45 -4 -150 -230 c-82 -126 -152 -234 -154 -239 -4 -13
28 -49 44 -49 11 0 361 520 353 524 -2 0 -23 0 -48 -2z"/>
<path d="M1008 891 c-21 -5 -50 -42 -138 -175 -113 -172 -119 -186 -82 -219
16 -15 25 -4 137 165 66 99 128 194 138 209 l19 29 -24 -1 c-12 -1 -35 -4 -50
-8z"/>
<path d="M1397 852 l15 -47 267 -101 266 -101 17 31 c9 17 13 34 10 38 -6 5
-425 167 -553 213 l-37 13 15 -46z"/>
<path d="M747 790 c-31 -49 -60 -96 -63 -104 -3 -8 3 -30 13 -49 l18 -35 93
139 92 139 -47 0 -48 0 -58 -90z"/>
<path d="M1290 835 c-27 -43 -34 -11 77 -353 59 -184 78 -232 90 -228 8 3 23
6 34 6 10 0 19 5 19 12 0 17 -181 582 -190 591 -4 5 -18 -8 -30 -28z"/>
<path d="M1193 685 c-13 -19 -23 -38 -23 -42 0 -5 28 -97 62 -205 l63 -198 38
0 c20 0 37 3 37 7 0 12 -143 458 -149 465 -3 4 -16 -8 -28 -27z"/>
<path d="M1446 698 c19 -64 19 -63 181 -125 259 -99 231 -92 259 -59 14 15 24
29 22 31 -5 4 -458 175 -464 175 -3 0 -2 -10 2 -22z"/>
<path d="M1093 535 c-13 -19 -23 -40 -23 -46 0 -6 14 -57 31 -114 l32 -103 41
-11 c22 -5 41 -9 43 -7 3 2 -96 316 -100 316 -1 0 -12 -16 -24 -35z"/>
<path d="M1501 537 c0 -6 6 -27 13 -46 11 -31 21 -37 111 -72 55 -21 105 -39
111 -39 14 0 64 39 64 49 0 4 -46 25 -102 46 -57 21 -124 46 -150 56 -35 13
-48 15 -47 6z"/>
</g>
</svg>
