<?xml version="1.0" standalone="no"?>
<!DOCTYPE svg PUBLIC "-//W3C//DTD SVG 20010904//EN"
 "http://www.w3.org/TR/2001/REC-SVG-20010904/DTD/svg10.dtd">
<svg version="1.0" xmlns="http://www.w3.org/2000/svg"
 width="814.000000pt" height="306.000000pt" viewBox="0 0 814.000000 306.000000"
 preserveAspectRatio="xMidYMid meet">

<g transform="translate(0.000000,306.000000) scale(0.100000,-0.100000)"
fill="#000000" stroke="none">
<path d="M6747 3049 c-369 -39 -643 -243 -717 -535 -24 -93 -26 -244 -5 -324
45 -170 183 -330 360 -418 97 -49 332 -134 485 -176 407 -112 446 -138 438
-292 -2 -54 -9 -80 -24 -101 -50 -67 -136 -100 -284 -110 -279 -17 -442 90
-484 317 l-12 65 -273 3 -272 2 7 -62 c20 -196 88 -375 179 -477 102 -113 237
-195 378 -231 108 -27 318 -44 464 -36 337 17 560 100 715 264 114 122 159
244 160 437 2 241 -90 408 -291 529 -101 61 -187 93 -520 196 -145 44 -292 95
-328 112 -116 54 -163 111 -165 196 -3 116 98 194 268 209 220 18 398 -88 420
-251 l6 -43 82 -7 c44 -3 166 -6 269 -6 l188 0 -7 68 c-15 153 -70 294 -153
395 -178 215 -502 316 -884 276z"/>
<path d="M7660 2945 c0 -22 4 -25 35 -25 l35 0 0 -110 0 -110 25 0 25 0 0 110
0 110 40 0 c36 0 40 3 40 25 l0 25 -100 0 -100 0 0 -25z"/>
<path d="M7890 2835 l0 -135 25 0 c25 0 25 0 26 98 l1 97 25 -97 c23 -89 27
-98 49 -98 18 0 25 8 33 38 5 20 16 62 25 92 l14 55 1 -92 c1 -92 1 -93 26
-93 l25 0 0 135 0 135 -39 0 -39 0 -17 -72 c-25 -102 -30 -108 -44 -52 -33
133 -28 124 -71 124 l-40 0 0 -135z"/>
<path d="M0 1835 l0 -1125 290 0 290 0 0 1125 0 1125 -290 0 -290 0 0 -1125z"/>
<path d="M830 1835 l0 -1125 870 0 870 0 0 230 0 230 -587 2 -588 3 -3 228 -2
227 590 0 590 0 0 225 0 225 -587 2 -588 3 -3 208 c-2 162 0 207 10 208 7 1
272 2 588 3 l575 1 3 228 2 227 -870 0 -870 0 0 -1125z"/>
<path d="M2800 1835 l0 -1125 815 0 815 0 0 240 0 240 -530 0 -530 0 0 885 0
885 -285 0 -285 0 0 -1125z"/>
<path d="M4012 2733 l3 -228 323 0 322 0 0 -897 0 -898 285 0 285 0 2 896 3
895 325 2 325 2 0 225 0 225 -938 3 -937 2 2 -227z"/>
<path d="M10 275 l0 -175 120 0 120 0 0 30 0 30 -91 0 -90 0 3 48 3 47 78 3
c74 3 77 4 77 27 0 23 -3 24 -77 27 l-78 3 -3 38 -3 37 85 0 86 0 0 30 0 30
-115 0 -115 0 0 -175z"/>
<path d="M850 275 l0 -175 30 0 30 0 0 175 0 175 -30 0 -30 0 0 -175z"/>
<path d="M977 444 c-4 -4 -7 -18 -7 -31 0 -20 5 -23 34 -23 32 0 34 2 32 28
-2 20 -9 28 -27 30 -14 2 -28 0 -32 -4z"/>
<path d="M1350 286 c0 -91 0 -169 0 -173 0 -5 12 -8 28 -8 l27 0 5 93 c5 91
13 112 45 112 28 0 34 -20 37 -110 l3 -95 30 0 c29 0 30 1 33 55 5 77 -7 157
-24 175 -25 25 -65 30 -95 12 l-28 -16 -3 57 c-3 54 -5 57 -30 60 l-28 3 0
-165z"/>
<path d="M1767 432 c-10 -10 -17 -33 -17 -50 0 -25 -4 -32 -20 -32 -14 0 -20
-7 -20 -21 0 -12 8 -23 20 -26 18 -5 20 -14 20 -104 l0 -99 30 0 30 0 0 99 c0
96 1 100 23 103 14 2 23 11 25 26 3 18 -1 22 -22 22 -21 0 -26 5 -26 25 0 20
5 25 24 25 22 0 36 16 36 41 0 18 -86 10 -103 -9z"/>
<path d="M2460 275 l0 -175 30 0 30 0 0 175 0 175 -30 0 -30 0 0 -175z"/>
<path d="M4097 444 c-4 -4 -7 -18 -7 -31 0 -20 5 -23 36 -23 33 0 35 2 32 28
-2 20 -9 28 -28 30 -14 2 -29 0 -33 -4z"/>
<path d="M5010 275 l0 -175 30 0 30 0 0 175 0 175 -30 0 -30 0 0 -175z"/>
<path d="M5318 433 c-45 -28 -68 -82 -68 -159 0 -111 55 -174 151 -174 93 0
149 67 149 178 0 71 -15 108 -60 146 -26 21 -41 26 -88 26 -35 0 -67 -7 -84
-17z m141 -66 c50 -54 31 -180 -31 -201 -68 -24 -124 39 -114 128 7 64 36 96
86 96 25 0 43 -7 59 -23z"/>
<path d="M7290 420 c0 -27 3 -30 30 -30 27 0 30 3 30 30 0 27 -3 30 -30 30
-27 0 -30 -3 -30 -30z"/>
<path d="M2888 422 c-18 -10 -28 -25 -28 -40 0 -12 -7 -25 -15 -28 -8 -4 -15
-17 -15 -30 0 -15 6 -24 15 -24 12 0 15 -16 15 -84 0 -64 4 -88 16 -100 16
-16 79 -22 87 -8 8 14 -8 47 -23 47 -12 0 -16 16 -18 73 -3 67 -1 72 18 72 15
0 20 6 20 25 0 18 -5 25 -19 25 -16 0 -20 8 -23 44 l-3 45 -27 -17z"/>
<path d="M3978 422 c-20 -12 -28 -25 -28 -44 0 -18 -5 -28 -15 -28 -9 0 -15
-9 -15 -25 0 -16 6 -25 15 -25 12 0 15 -16 15 -84 0 -64 4 -88 16 -100 16 -16
79 -22 87 -8 8 14 -8 47 -23 47 -12 0 -16 16 -18 73 -3 67 -1 72 18 72 15 0
20 6 20 25 0 18 -5 25 -19 25 -16 0 -20 8 -23 44 l-3 45 -27 -17z"/>
<path d="M6628 422 c-16 -9 -28 -27 -30 -42 -3 -23 -7 -25 -51 -25 -31 0 -51
-5 -58 -15 -8 -11 -12 -12 -16 -2 -2 6 -16 12 -29 12 l-24 0 0 -125 0 -125 30
0 30 0 0 74 c0 96 12 130 44 124 18 -4 27 1 34 16 9 18 11 18 11 4 1 -10 8
-18 16 -18 12 0 15 -16 15 -84 0 -97 11 -116 66 -116 31 0 34 3 34 29 0 21 -5
28 -17 27 -15 -1 -18 10 -21 72 -3 67 -1 72 18 72 15 0 20 6 20 25 0 18 -5 25
-19 25 -16 0 -20 8 -23 44 l-3 45 -27 -17z"/>
<path d="M7432 414 c-12 -8 -22 -26 -22 -40 0 -13 -4 -24 -10 -24 -5 0 -10
-11 -10 -25 0 -14 4 -25 9 -25 5 0 10 -38 13 -84 5 -100 16 -118 67 -114 31 3
36 7 39 31 3 23 0 28 -15 25 -16 -3 -18 6 -21 70 -3 67 -1 72 18 72 15 0 20 6
20 25 0 18 -5 25 -20 25 -17 0 -20 7 -20 40 0 44 -11 50 -48 24z"/>
<path d="M386 339 c-21 -17 -26 -18 -26 -5 0 10 -9 16 -25 16 l-25 0 0 -115
c0 -63 0 -118 0 -122 0 -5 12 -8 28 -8 l27 0 5 93 c4 67 9 95 20 102 44 28 59
2 62 -106 l3 -89 30 0 c29 0 30 1 33 55 5 84 -7 159 -29 181 -25 25 -70 24
-103 -2z"/>
<path d="M599 331 c-56 -57 -40 -189 27 -217 35 -15 58 -11 87 14 16 14 17 13
17 -16 0 -52 -44 -79 -79 -48 -9 7 -31 16 -48 19 -39 8 -43 -7 -13 -46 25 -31
85 -43 135 -27 56 18 65 48 65 205 l0 135 -30 0 c-16 0 -30 -5 -30 -11 0 -5
-10 -3 -22 5 -35 25 -76 20 -109 -13z m111 -41 c40 -40 15 -130 -35 -130 -30
0 -45 26 -45 76 0 38 22 74 47 74 7 0 22 -9 33 -20z"/>
<path d="M1115 338 c-21 -18 -28 -33 -27 -57 1 -45 14 -56 83 -77 43 -13 59
-22 57 -33 -4 -22 -69 -28 -80 -7 -11 20 -68 22 -68 2 0 -28 59 -66 101 -66
80 0 124 47 103 109 -7 21 -23 31 -74 48 -36 12 -65 27 -65 35 0 18 59 22 73
5 12 -14 62 -12 62 3 0 4 -8 18 -18 30 -13 16 -32 24 -68 27 -43 4 -55 2 -79
-19z"/>
<path d="M1938 344 c-38 -20 -58 -63 -58 -123 0 -69 36 -111 101 -118 27 -3
55 0 68 7 55 29 78 127 46 190 -28 54 -101 75 -157 44z m102 -63 c17 -33 12
-89 -10 -111 -25 -25 -45 -25 -70 0 -25 25 -27 91 -4 114 22 23 71 20 84 -3z"/>
<path d="M2237 343 c-11 -11 -17 -13 -17 -5 0 7 -13 12 -30 12 l-30 0 0 -125
0 -125 30 0 30 0 0 74 c0 98 12 130 46 123 20 -4 27 1 35 21 16 41 -30 58 -64
25z"/>
<path d="M2666 339 c-21 -17 -26 -18 -26 -5 0 11 -9 16 -30 16 l-31 0 3 -122
3 -123 28 -3 27 -3 0 75 c0 87 11 122 40 131 38 12 49 -10 52 -108 l3 -92 28
-3 27 -3 0 110 c0 106 -1 110 -26 130 -15 12 -37 21 -49 21 -12 0 -34 -9 -49
-21z"/>
<path d="M3024 326 c-31 -31 -34 -40 -34 -90 0 -67 15 -103 51 -122 48 -24 96
-18 131 17 25 25 29 33 17 40 -21 13 -45 11 -59 -6 -18 -21 -57 -19 -70 4 -19
37 -12 41 65 41 l75 0 0 33 c0 41 -33 95 -66 107 -46 18 -75 11 -110 -24z
m100 -32 c30 -29 20 -44 -29 -44 -32 0 -45 4 -45 14 0 18 27 46 45 46 7 0 21
-7 29 -16z"/>
<path d="M3327 343 c-11 -11 -17 -13 -17 -5 0 7 -13 12 -30 12 l-30 0 0 -125
0 -125 30 0 30 0 0 74 c0 98 12 130 46 123 20 -4 27 1 35 21 16 41 -30 58 -64
25z"/>
<path d="M3507 340 c-22 -18 -27 -19 -27 -6 0 11 -9 16 -30 16 l-31 0 3 -122
3 -123 30 0 30 0 5 93 c4 67 9 95 20 102 44 28 59 2 62 -106 l3 -89 30 0 c29
0 30 1 33 55 4 70 -6 153 -21 174 -20 28 -78 31 -110 6z"/>
<path d="M3729 345 c-28 -15 -43 -40 -33 -56 9 -15 51 -10 58 6 8 22 53 19 66
-5 9 -17 7 -22 -15 -30 -15 -6 -33 -10 -41 -10 -8 0 -28 -7 -43 -15 -46 -23
-54 -66 -20 -109 24 -30 71 -35 106 -11 19 13 22 13 27 0 3 -8 16 -15 30 -15
l24 0 -4 103 c-3 56 -7 109 -9 118 -12 37 -97 51 -146 24z m92 -157 c-6 -28
-12 -33 -38 -36 -49 -5 -57 39 -9 58 43 18 54 13 47 -22z"/>
<path d="M4259 337 c-69 -46 -73 -157 -8 -211 35 -30 84 -34 129 -11 83 43 79
189 -6 230 -44 21 -75 19 -115 -8z m110 -68 c20 -36 7 -97 -24 -111 -19 -9
-29 -7 -50 6 -20 13 -25 25 -25 57 0 59 15 81 53 77 21 -2 36 -11 46 -29z"/>
<path d="M4578 344 c-16 -8 -28 -10 -28 -4 0 5 -13 10 -30 10 l-30 0 0 -125 0
-125 30 0 30 0 0 83 c0 89 15 127 50 127 30 0 40 -31 40 -124 l0 -86 30 0 30
0 0 105 c0 99 -2 107 -25 130 -27 28 -57 31 -97 9z"/>
<path d="M4805 350 c-29 -11 -48 -37 -41 -55 7 -19 40 -19 56 0 16 19 44 19
60 0 17 -21 6 -31 -47 -45 -62 -15 -83 -35 -83 -77 0 -62 73 -96 127 -58 19
13 22 13 27 0 3 -8 17 -15 32 -15 22 0 25 3 20 23 -3 12 -6 59 -6 105 0 75 -2
85 -25 107 -25 26 -78 33 -120 15z m85 -154 c0 -30 -22 -49 -52 -44 -36 5 -36
43 -1 56 43 16 53 14 53 -12z"/>
<path d="M5688 344 c-16 -8 -28 -10 -28 -4 0 5 -13 10 -30 10 l-30 0 0 -170 0
-170 30 0 30 0 0 61 0 60 22 -15 c81 -57 170 47 138 162 -11 45 -50 82 -84 82
-11 -1 -33 -8 -48 -16z m54 -51 c22 -26 28 -59 17 -97 -16 -59 -70 -59 -89 0
-13 39 -8 75 16 98 20 21 37 20 56 -1z"/>
<path d="M5960 343 c-17 -12 -25 -13 -28 -5 -2 7 -17 12 -33 12 l-29 0 2 -167
3 -168 33 -3 32 -3 0 62 c0 60 1 61 18 46 53 -48 131 5 140 92 5 59 -10 103
-46 131 -30 24 -60 25 -92 3z m54 -49 c42 -42 25 -144 -24 -144 -47 0 -72 100
-35 140 22 24 38 25 59 4z"/>
<path d="M6192 340 c-39 -24 -52 -54 -52 -122 0 -44 4 -54 34 -84 78 -78 196
-20 196 96 0 105 -93 162 -178 110z m108 -70 c25 -46 -3 -120 -45 -120 -28 0
-55 38 -55 78 0 76 66 105 100 42z"/>
<path d="M7096 339 c-21 -17 -26 -18 -26 -5 0 11 -9 16 -29 16 l-29 0 1 -122
2 -123 30 0 30 0 5 93 c4 67 9 95 20 102 44 28 59 2 62 -106 l3 -89 30 0 c29
0 30 1 33 55 5 84 -7 159 -29 181 -25 25 -70 24 -103 -2z"/>
<path d="M972 228 l3 -123 30 0 30 0 -2 120 -3 120 -30 3 -31 3 3 -123z"/>
<path d="M4092 228 l3 -123 30 0 30 0 3 123 3 122 -36 0 -36 0 3 -122z"/>
<path d="M6742 244 c3 -97 5 -107 27 -125 28 -23 70 -25 97 -4 24 18 35 19 32
3 -2 -8 9 -14 25 -16 l27 -3 0 125 0 126 -30 0 -30 0 0 -84 c0 -90 -11 -116
-50 -116 -30 0 -40 31 -40 119 l0 81 -31 0 -31 0 4 -106z"/>
<path d="M7290 224 l0 -125 28 3 27 3 3 123 3 122 -31 0 -30 0 0 -126z"/>
<path d="M7541 323 c82 -211 89 -263 33 -263 -22 0 -25 -4 -22 -27 3 -25 7
-28 41 -27 21 1 45 8 52 15 8 8 39 85 69 172 l55 157 -33 0 c-33 0 -33 -1 -56
-80 -12 -44 -26 -78 -30 -75 -4 2 -17 38 -29 80 -22 74 -23 75 -57 75 -33 0
-33 -1 -23 -27z"/>
</g>
</svg>
