<?xml version="1.0" standalone="no"?>
<!DOCTYPE svg PUBLIC "-//W3C//DTD SVG 20010904//EN"
 "http://www.w3.org/TR/2001/REC-SVG-20010904/DTD/svg10.dtd">
<svg version="1.0" xmlns="http://www.w3.org/2000/svg"
 width="560.000000pt" height="197.000000pt" viewBox="0 0 560.000000 197.000000"
 preserveAspectRatio="xMidYMid meet">

<g transform="translate(0.000000,197.000000) scale(0.100000,-0.100000)"
fill="#000000" stroke="none">
<path d="M665 1700 c-165 -26 -314 -138 -398 -298 -65 -123 -84 -292 -52 -447
16 -75 79 -213 119 -257 81 -91 200 -142 331 -142 141 0 269 57 380 168 164
164 246 451 185 647 -59 192 -228 316 -450 333 -36 2 -87 1 -115 -4z m239
-218 c118 -53 176 -132 176 -240 0 -80 -19 -125 -78 -185 -52 -53 -119 -83
-207 -93 -50 -6 -55 -9 -55 -31 0 -37 -16 -60 -51 -72 -69 -24 -79 8 -79 259
0 123 3 160 14 169 22 18 81 25 105 11 21 -11 22 -16 19 -132 l-3 -120 40 6
c52 9 124 53 152 95 17 24 23 48 23 85 0 90 -51 144 -158 168 -97 21 -251 -18
-319 -82 -43 -39 -72 -53 -88 -40 -56 47 64 164 220 216 64 21 229 13 289 -14z
m-188 -677 c27 -27 26 -59 -4 -82 -57 -45 -123 36 -72 87 27 27 46 25 76 -5z"/>
<path d="M1460 1391 c0 -6 11 -11 24 -11 50 0 56 -26 56 -243 0 -119 -4 -206
-10 -218 -6 -11 -25 -26 -43 -33 -30 -13 -23 -14 93 -14 100 0 119 2 95 10
-57 20 -65 34 -65 118 l0 77 82 7 c145 12 208 60 208 156 0 62 -29 106 -88
133 -40 18 -70 22 -199 25 -108 3 -153 1 -153 -7z m290 -29 c44 -22 60 -53 60
-119 0 -102 -32 -136 -133 -137 l-62 -1 -3 138 -3 137 53 0 c30 0 68 -7 88
-18z"/>
<path d="M2015 1237 c-43 -20 -92 -80 -106 -129 -21 -81 14 -180 79 -220 68
-42 175 -25 224 36 25 30 22 43 -4 19 -35 -32 -63 -43 -106 -43 -69 0 -122 63
-122 145 l0 35 125 0 125 0 0 31 c0 42 -26 94 -57 114 -34 23 -120 29 -158 12z
m119 -29 c8 -13 16 -41 18 -63 l3 -40 -79 -3 c-44 -2 -84 2 -89 7 -13 13 18
97 41 111 9 5 34 10 54 10 28 0 41 -6 52 -22z"/>
<path d="M2354 1231 c-54 -25 -73 -73 -39 -101 37 -30 88 33 55 66 -16 16 12
34 55 36 54 2 77 -28 73 -95 l-3 -50 -68 -19 c-84 -23 -116 -43 -133 -85 -32
-75 36 -137 124 -114 21 6 47 20 57 31 23 26 33 25 37 -2 4 -29 46 -42 84 -27
25 11 27 13 9 17 -11 2 -23 9 -27 16 -4 6 -8 69 -8 139 0 146 -10 178 -61 196
-47 16 -108 13 -155 -8z m146 -225 c0 -58 -3 -67 -26 -85 -32 -25 -76 -27 -98
-5 -21 21 -20 77 2 97 17 15 99 56 115 57 4 0 7 -29 7 -64z"/>
<path d="M2691 1243 c-34 -4 -34 -5 -10 -17 24 -12 24 -12 24 -171 l0 -159
-25 -13 c-22 -11 -14 -13 65 -12 72 0 85 3 63 11 l-28 10 0 132 c0 132 0 132
28 159 26 25 60 38 48 19 -8 -14 23 -52 43 -52 25 0 41 20 41 52 0 54 -70 65
-124 18 l-35 -31 -3 28 c-3 30 -18 35 -87 26z"/>
<path d="M3033 1230 c-40 -24 -53 -48 -53 -98 0 -50 36 -83 112 -106 76 -22
98 -40 98 -81 0 -41 -29 -65 -76 -65 -36 0 -84 35 -111 81 -10 16 -20 29 -23
29 -3 0 -5 -27 -5 -60 0 -61 3 -68 22 -49 8 8 17 7 34 -1 36 -20 121 -17 153
4 56 36 70 131 27 170 -11 10 -52 30 -92 45 -89 32 -114 62 -86 105 14 21 25
26 58 26 42 0 71 -21 111 -80 17 -25 17 -24 17 38 1 34 -3 62 -8 62 -5 0 -11
-5 -13 -10 -2 -7 -15 -7 -38 0 -52 15 -91 12 -127 -10z"/>
<path d="M3394 1235 c-78 -35 -125 -132 -105 -219 22 -95 85 -148 176 -149
108 -1 185 79 185 192 0 50 -26 116 -56 143 -51 45 -139 59 -200 33z m140 -30
c28 -30 36 -65 36 -157 0 -109 -36 -168 -103 -168 -62 0 -91 39 -102 137 -9
74 8 159 37 190 31 33 100 32 132 -2z"/>
<path d="M3711 1243 c-33 -4 -33 -5 -12 -19 20 -14 21 -24 21 -173 0 -154 -1
-158 -22 -169 -19 -9 -8 -11 57 -11 65 0 76 2 58 11 -22 11 -23 16 -23 136 l0
124 34 34 c26 26 42 34 69 34 59 0 67 -22 67 -181 0 -131 -1 -136 -22 -147
-19 -9 -8 -11 57 -11 63 0 75 3 58 11 -21 10 -22 18 -25 164 -3 173 -10 189
-81 201 -49 8 -81 -2 -121 -38 l-35 -30 -3 33 c-3 36 -12 39 -77 31z"/>
<path d="M3929 572 c0 -4 0 -45 1 -92 l1 -85 -24 23 c-33 31 -94 39 -136 17
-84 -43 -96 -225 -20 -289 40 -34 104 -36 144 -5 22 18 29 20 36 8 5 -8 9 -17
9 -21 0 -5 11 -8 25 -8 l25 0 -2 226 -3 227 -27 3 c-16 1 -28 0 -29 -4z m-32
-196 c26 -22 28 -30 28 -96 0 -63 -3 -74 -24 -91 -31 -25 -83 -25 -106 1 -39
43 -35 159 5 192 30 25 64 23 97 -6z"/>
<path d="M5020 555 c-20 -25 -8 -50 25 -50 21 0 31 5 33 18 4 21 -14 47 -33
47 -7 0 -18 -7 -25 -15z"/>
<path d="M1484 537 c-2 -7 -3 -102 -2 -212 l3 -200 32 -3 32 -3 3 82 3 82 54
4 c105 7 151 49 151 137 0 61 -37 104 -100 117 -70 13 -170 11 -176 -4z m187
-66 c17 -13 23 -29 23 -56 0 -51 -30 -75 -95 -75 l-49 0 0 75 0 75 49 0 c33 0
56 -6 72 -19z"/>
<path d="M1810 520 l0 -30 60 0 60 0 0 -186 0 -185 33 3 32 3 2 165 c1 91 2
173 3 183 0 14 10 17 60 17 l60 0 0 30 0 30 -155 0 -155 0 0 -30z"/>
<path d="M2194 537 c-2 -7 -3 -102 -2 -212 l3 -200 118 -3 117 -3 0 31 0 30
-85 0 -85 0 0 70 0 70 80 0 c79 0 80 0 80 25 0 25 -1 25 -80 25 l-80 0 0 60 0
60 85 0 85 0 0 30 0 30 -115 0 c-85 0 -117 -3 -121 -13z"/>
<path d="M2780 528 c-13 -30 -150 -400 -150 -404 0 -2 15 -4 33 -4 31 0 34 3
52 58 l20 57 86 3 86 3 22 -61 c20 -55 25 -60 52 -60 16 0 29 5 29 13 0 11
-51 152 -126 350 -25 65 -27 67 -60 67 -26 0 -37 -5 -44 -22z m47 -226 c-33
-2 -61 -1 -63 1 -2 2 11 45 28 97 l32 93 31 -94 32 -94 -60 -3z"/>
<path d="M3135 432 c-65 -32 -94 -106 -75 -196 16 -76 52 -108 129 -114 70 -5
101 8 101 44 0 21 -3 25 -17 18 -10 -4 -36 -9 -59 -12 -36 -3 -44 0 -68 29
-25 30 -28 39 -24 91 6 88 47 118 130 95 22 -6 28 -3 33 14 10 29 -6 41 -62
46 -33 2 -60 -2 -88 -15z"/>
<path d="M3432 441 c-45 -12 -55 -23 -39 -45 10 -14 17 -15 40 -7 63 24 109 8
121 -40 6 -26 5 -26 -60 -33 -108 -11 -144 -39 -144 -111 0 -54 35 -85 99 -85
38 0 56 6 80 26 l30 25 7 -25 c4 -19 13 -26 30 -26 24 0 24 0 24 119 0 128 -9
169 -41 189 -27 17 -105 23 -147 13z m118 -196 c0 -48 -29 -75 -80 -75 -33 0
-42 4 -49 23 -18 47 26 85 102 86 24 1 27 -2 27 -34z"/>
<path d="M4180 444 c-74 -27 -102 -70 -103 -158 -1 -109 54 -166 160 -166 72
0 103 13 103 45 0 22 -2 24 -26 15 -14 -6 -47 -10 -74 -10 -42 0 -52 4 -74 31
-14 17 -26 39 -26 50 0 18 8 19 110 19 107 0 110 1 110 23 0 81 -50 144 -120
152 -25 2 -52 2 -60 -1z m91 -65 c11 -11 19 -29 17 -41 -3 -18 -10 -20 -73
-20 -67 0 -70 1 -67 24 5 53 83 77 123 37z"/>
<path d="M4560 443 c-8 -3 -25 -15 -38 -26 l-23 -21 -6 22 c-3 15 -13 22 -29
22 l-24 0 0 -160 0 -160 29 0 29 0 4 116 c3 112 4 117 31 140 33 28 57 30 86
7 19 -16 21 -30 23 -138 l3 -120 33 -3 32 -3 0 116 c0 110 1 117 25 140 32 33
68 32 94 -1 18 -23 21 -41 21 -140 l0 -114 31 0 31 0 -4 140 c-3 130 -5 141
-26 162 -33 34 -120 33 -156 -1 -24 -22 -27 -23 -39 -8 -22 29 -87 45 -127 30z"/>
<path d="M5256 440 c-45 -14 -73 -48 -86 -102 -21 -86 5 -175 60 -203 33 -17
122 -20 151 -5 25 14 27 65 2 55 -99 -38 -153 -1 -153 104 0 84 49 121 131 98
22 -6 28 -3 33 15 3 13 1 27 -4 32 -13 13 -100 17 -134 6z"/>
<path d="M5012 283 l3 -158 30 0 30 0 3 158 3 157 -36 0 -36 0 3 -157z"/>
</g>
</svg>
