<svg enable-background="new 0 0 1220.48 491.48" height="200.585082" viewBox="0 0 1220.48 491.48" width="498.541562" xmlns="http://www.w3.org/2000/svg"><path d="m346.03 348.47v-107.03c0-1.1-.9-2-2-2h-29.76c-1.1 0-2-.9-2-2v-34.02c0-1.1.9-2 2-2h29.76c1.1 0 2-.9 2-2v-44.89c0-1.1.9-2 2-2h45.28c1.1 0 2 .9 2 2v44.89c0 1.1.9 2 2 2h42.56c1.1 0 2 .9 2 2v34.02c0 1.1-.9 2-2 2h-42.56c-1.1 0-2 .9-2 2v97.33c0 21.34 6.6 24.83 22.5 24.83h22.06c1.1 0 2 .9 2 2v34.51c0 1.07-.84 1.94-1.9 2-13.24.68-21.76.68-38.06.68-34.15-.01-55.88-10.09-55.88-54.32z"/><path d="m446.74 300.74c0-63.24 47.72-103.98 105.92-103.98 58.59 0 105.54 39.96 105.54 103.98 0 64.41-47.34 105.92-105.54 105.92-58.97 0-105.92-40.73-105.92-105.92zm160.25 0c0-36.47-22.12-62.08-54.32-62.08-32.98 0-54.71 25.22-54.71 62.08 0 38.02 22.12 64.02 54.71 64.02 32.2 0 54.32-25.61 54.32-64.02z"/><path d="m781.59 406.66c-57.04 0-104.76-39.58-104.76-106.31 0-63.63 49.28-103.6 102.82-103.6 54.32 0 100.88 36.86 100.88 108.25v8.86c0 1.1-.9 2-2 2h-148.97c-1.23 0-2.17 1.11-1.98 2.33 4.71 30.45 27.54 49.28 55.55 49.28 18.26 0 36.51-5.96 46-23.01.36-.64 1.02-1.05 1.75-1.05h45.02c1.36 0 2.31 1.33 1.9 2.62-13.35 42.38-55.53 60.63-96.21 60.63zm-52.4-126.1h97.9c1.21 0 2.14-1.07 1.98-2.28-3.23-25.88-23.05-42.73-50.2-42.73-25.65 0-47.27 15.77-51.66 42.67-.2 1.23.74 2.34 1.98 2.34z"/><path d="m965.27 241.44v158.96c0 1.1-.9 2-2 2h-44.5c-1.1 0-2-.9-2-2v-158.96c0-1.1-.9-2-2-2h-30.53c-1.1 0-2-.9-2-2v-34.02c0-1.1.9-2 2-2h30.53c1.1 0 2-.9 2-2v-19.73c0-44.23 24.06-57.42 60.92-57.42 12.06 0 20.68.35 31.04.71 1.08.04 1.94.92 1.94 2v34.37c0 1.15-.95 2.06-2.1 2-6.74-.35-13.77-.67-20.79-.67-12.8 0-22.5 3.88-22.5 22.12v16.62c0 1.1.9 2 2 2h41.4c1.1 0 2 .9 2 2v34.02c0 1.1-.9 2-2 2h-41.4c-1.12 0-2.01.89-2.01 2zm74.37-118.4h45.66c1.1 0 2 .9 2 2v275.36c0 1.1-.9 2-2 2h-45.66c-1.1 0-2-.9-2-2v-275.36c0-1.11.9-2 2-2z"/><path clip-rule="evenodd" d="m128.21 266.81 131.9-131.9c.56-.64.76-1.52.49-2.33l-7.78-23.8c-.56-1.71-2.73-2.21-4.02-.92l-46.66 46.66v-54.7c0-.91-.51-1.74-1.32-2.15l-22.33-11.33c-1.6-.81-3.49.37-3.49 2.19v65.98l-38.67-38.67c-.64-.64-1.59-.87-2.46-.59l-23.8 7.78c-1.71.56-2.21 2.73-.92 4.02l46.66 46.66h-54.69c-.91 0-1.74.51-2.15 1.32l-11.33 22.33c-.81 1.6.37 3.49 2.19 3.49h65.98l-38.67 38.67c-.64.64-.87 1.59-.59 2.46l7.78 23.8c.53 1.66 2.58 2.16 3.88 1.03z" fill-rule="evenodd"/><path clip-rule="evenodd" d="m287.32 173.71h-45.82c-.64 0-1.25.25-1.71.71l-64.09 64.09c-.45.45-.71 1.07-.71 1.71v34.53c0 .91.51 1.74 1.32 2.15l22.33 11.33c1.6.81 3.49-.37 3.49-2.19v-65.98l38.67 38.67c.64.64 1.59.87 2.46.59l23.8-7.78c1.71-.56 2.21-2.73.92-4.02l-46.66-46.66h54.69c.91 0 1.74-.51 2.15-1.32l11.33-22.33c.84-1.62-.35-3.5-2.17-3.5z" fill-rule="evenodd"/><path d="m1109.05 390.4c0-6.72 5.34-12.06 12-12.06 6.6 0 12.06 5.1 12.06 12.06 0 6.66-5.52 12-12.06 12-6.72 0-12-5.34-12-12zm21.36 0c0-5.04-4.2-9.6-9.36-9.6-5.22 0-9.36 4.5-9.36 9.6 0 5.04 4.2 9.54 9.36 9.54s9.36-4.38 9.36-9.54zm-11.34 1.56v4.5h-2.7v-12.3h5.82c2.64 0 4.02 1.8 4.02 3.84 0 1.8-1.08 2.94-2.4 3.42v.06c.18.24.3.42.66 1.2l2.1 3.78h-3.12l-2.16-4.02c-.18-.42-.3-.48-.78-.48zm0-2.28h2.46c1.26 0 1.86-.6 1.86-1.62s-.66-1.68-1.86-1.68h-2.46z"/></svg>