<?xml version="1.0" standalone="no"?>
<!DOCTYPE svg PUBLIC "-//W3C//DTD SVG 20010904//EN"
 "http://www.w3.org/TR/2001/REC-SVG-20010904/DTD/svg10.dtd">
<svg version="1.0" xmlns="http://www.w3.org/2000/svg"
 width="512.000000pt" height="487.000000pt" viewBox="0 0 512.000000 487.000000"
 preserveAspectRatio="xMidYMid meet">

<g transform="translate(0.000000,487.000000) scale(0.100000,-0.100000)"
fill="#000000" stroke="none">
<path d="M2676 4295 c-31 -110 -97 -325 -102 -333 -1 -2 -28 21 -61 51 -32 31
-59 54 -61 52 -2 -2 -13 -48 -23 -101 -11 -54 -21 -99 -23 -101 -1 -2 -27 25
-57 59 -80 93 -77 91 -83 71 -2 -10 -7 -53 -11 -95 -4 -43 -10 -90 -14 -104
l-7 -26 -43 49 c-25 26 -67 73 -95 103 -28 30 -98 107 -156 170 -138 151 -130
143 -135 138 -3 -3 8 -58 24 -124 15 -65 38 -164 51 -219 12 -55 26 -113 31
-129 5 -16 7 -31 5 -34 -3 -2 -56 20 -118 50 -62 30 -114 51 -116 47 -2 -4 11
-49 28 -99 17 -51 29 -94 26 -97 -3 -3 -53 15 -111 40 -58 26 -110 47 -114 47
-9 0 -5 -13 48 -159 17 -46 29 -86 27 -88 -2 -2 -45 14 -95 36 -50 23 -133 60
-183 82 -51 23 -115 50 -143 61 l-50 19 80 -83 c45 -46 130 -134 190 -196 61
-62 111 -116 113 -121 1 -4 -54 -19 -124 -34 -69 -14 -129 -28 -132 -31 -3 -3
9 -24 26 -46 37 -45 42 -40 -78 -85 -41 -15 -77 -29 -79 -31 -2 -2 17 -38 43
-80 47 -78 53 -94 37 -94 -16 0 -405 -60 -431 -67 -30 -7 -49 -1 267 -89 117
-32 213 -62 213 -66 0 -3 -38 -35 -85 -69 -47 -35 -85 -66 -85 -69 0 -3 29
-21 65 -40 36 -19 65 -38 65 -41 0 -4 -32 -31 -71 -60 l-71 -54 63 -14 63 -14
-49 -43 -50 -44 70 -1 c39 -1 73 -1 78 0 18 3 4 -35 -34 -90 -22 -33 -39 -63
-37 -68 2 -4 53 1 113 11 61 10 115 17 121 15 7 -1 -80 -96 -192 -211 -112
-115 -203 -211 -201 -212 1 -1 101 17 222 42 121 24 223 44 228 44 10 0 9 -27
-3 -48 -24 -40 -78 -187 -69 -190 7 -3 129 25 192 44 18 6 18 1 12 -70 -4 -42
-6 -76 -3 -76 2 0 35 13 73 29 38 16 71 28 72 27 4 -3 -15 -148 -23 -184 -5
-23 -4 -23 23 -5 15 10 58 39 96 65 37 27 69 48 72 48 8 0 6 -88 -4 -175 -5
-44 -14 -143 -21 -220 -6 -77 -16 -180 -20 -229 -5 -50 -8 -92 -6 -94 3 -2 20
29 39 70 160 335 288 588 295 584 5 -3 33 -46 62 -95 29 -50 57 -88 63 -85 7
2 21 18 32 34 11 17 23 30 27 30 3 0 16 -15 27 -34 36 -58 46 -61 77 -27 15
17 31 31 35 31 5 0 17 -20 28 -44 67 -152 105 -226 112 -214 4 7 21 87 39 178
18 91 35 169 39 173 7 7 43 -45 138 -196 13 -20 27 -37 31 -37 4 1 23 35 42
76 19 42 40 78 47 81 7 3 24 -2 38 -11 13 -9 28 -16 33 -16 4 0 14 35 21 78 8
42 19 101 25 131 l12 55 74 -100 c41 -54 114 -152 162 -217 48 -65 88 -111 88
-102 0 8 -16 94 -35 189 -37 182 -41 216 -26 216 5 0 53 -14 106 -30 54 -17
100 -28 103 -25 3 3 -13 44 -36 92 -22 48 -39 89 -37 91 1 2 42 -8 89 -21 l86
-25 -5 32 c-10 58 -24 181 -20 184 2 2 87 -19 190 -47 102 -28 188 -51 191
-51 11 0 2 17 -24 45 -62 68 -112 128 -112 135 0 4 25 8 55 8 31 -1 58 2 61 5
3 3 -17 39 -45 81 -28 41 -51 79 -51 85 0 5 29 13 65 16 36 4 65 10 65 13 0 2
-42 58 -94 122 l-95 118 32 6 c18 3 133 19 257 37 124 17 226 32 228 34 2 2
-92 49 -208 106 -116 56 -207 106 -203 109 5 4 61 24 126 44 64 20 117 40 117
44 0 4 -25 18 -55 30 -94 41 -95 44 -42 83 25 19 46 39 47 46 0 7 -27 27 -60
45 -33 18 -60 35 -60 38 0 3 40 23 90 45 49 22 86 42 82 46 -4 4 -41 17 -82
29 -41 12 -83 24 -92 26 -10 3 -18 11 -17 17 0 7 66 69 147 139 132 114 205
179 297 262 30 27 30 27 5 22 -14 -3 -200 -51 -414 -106 -215 -55 -391 -98
-393 -97 -1 2 33 63 77 137 44 73 80 135 80 138 0 2 9 17 21 34 12 16 19 31
16 34 -2 3 -35 -2 -71 -11 -88 -20 -86 -20 -86 20 0 19 -3 35 -6 35 -4 0 -38
-18 -77 -40 -38 -22 -72 -39 -74 -36 -4 4 22 82 77 231 10 28 33 91 50 140 17
50 38 107 46 129 8 21 13 40 12 42 -2 1 -60 -51 -128 -117 -210 -201 -298
-280 -303 -272 -3 5 -24 56 -47 113 -23 58 -43 106 -45 108 -1 2 -37 -38 -78
-87 -42 -50 -78 -87 -80 -83 -2 4 -10 52 -17 107 -15 126 -21 143 -40 124 -50
-48 -161 -141 -163 -138 -2 2 -8 27 -15 54 -56 241 -104 433 -111 450 -7 16
-11 9 -25 -40z m169 -715 c190 -41 366 -140 511 -284 93 -94 151 -175 204
-290 78 -165 104 -283 104 -466 -1 -193 -27 -307 -111 -478 -145 -297 -427
-510 -750 -567 -573 -100 -1113 292 -1208 878 -89 547 262 1079 794 1203 131
31 326 33 456 4z"/>
<path d="M2515 3553 c-464 -58 -818 -414 -881 -887 -24 -182 4 -370 82 -548
91 -206 273 -394 479 -493 538 -262 1183 16 1373 590 40 118 52 198 52 331 0
497 -349 914 -836 999 -80 14 -196 17 -269 8z m103 -84 c13 -20 13 -20 32 3
24 31 36 17 14 -17 -16 -25 -16 -28 0 -56 15 -25 15 -29 2 -29 -8 0 -20 8 -26
18 -10 16 -10 16 -20 0 -6 -10 -18 -18 -26 -18 -13 0 -13 4 2 29 16 27 16 31
1 54 -14 22 -14 37 2 37 4 0 12 -9 19 -21z m-68 2 c0 -5 -12 -11 -27 -13 -34
-4 -28 -23 7 -23 32 -1 28 -19 -5 -23 -40 -5 -31 -32 11 -32 21 0 33 -4 29
-10 -3 -5 -23 -10 -45 -10 l-38 0 -7 50 c-4 27 -4 54 0 60 8 13 75 14 75 1z
m217 -3 c13 -19 35 -110 28 -117 -4 -3 -12 1 -18 10 -20 26 -48 31 -62 12 -27
-37 -26 -2 1 51 30 59 36 64 51 44z m113 -57 l1 -36 20 28 c31 41 53 36 44 -9
-11 -59 -24 -89 -36 -77 -6 6 -6 19 1 39 l10 29 -21 -27 c-28 -38 -39 -35 -40
10 l-1 37 -10 -32 c-6 -18 -15 -33 -19 -33 -12 0 -11 33 0 62 5 13 12 31 15
40 10 31 36 9 36 -31z m-486 -13 c21 -67 8 -83 -35 -42 l-31 29 7 -37 c11 -56
-9 -47 -28 13 -10 28 -17 55 -17 60 0 17 24 9 53 -18 l29 -28 -7 38 c-11 55 9
46 29 -15z m596 -51 c-21 -47 -35 -64 -43 -50 -8 14 45 115 54 106 6 -6 1 -28
-11 -56z m-734 7 c51 -42 55 -54 17 -51 -21 2 -30 -5 -41 -26 -19 -39 -30 -24
-32 43 -4 85 -6 84 56 34z m804 -21 c1 -50 3 -50 36 4 7 10 15 15 18 11 11
-10 -43 -110 -57 -105 -7 2 -13 23 -15 47 l-3 43 -21 -34 c-29 -47 -35 -19 -7
36 30 60 49 59 49 -2z m-919 -18 c0 -5 -9 -11 -21 -13 -24 -4 -28 -43 -5 -62
18 -15 45 -6 45 15 0 8 5 15 10 15 20 0 9 -40 -14 -55 -28 -19 -58 -9 -76 25
-15 28 -12 48 11 71 20 20 50 23 50 4z m1059 -42 c0 -31 -26 -104 -36 -103 -5
0 -9 7 -9 15 0 21 -16 33 -50 37 l-30 3 50 32 c57 37 75 41 75 16z m-407 -23
c132 -33 228 -90 334 -196 74 -75 100 -109 132 -176 122 -251 106 -519 -42
-744 -178 -270 -515 -388 -814 -285 -117 40 -186 84 -278 176 -91 91 -143 173
-182 290 -25 72 -27 94 -28 225 0 125 3 154 23 215 104 313 369 513 682 514
63 1 122 -6 173 -19z m-693 -77 c0 -7 -4 -13 -9 -13 -14 0 -80 83 -74 93 7 11
82 -62 83 -80z m1175 45 c27 -23 37 -61 11 -39 -12 10 -21 5 -49 -25 -42 -46
-59 -30 -17 17 18 22 26 37 20 43 -6 6 -10 14 -10 18 0 14 19 8 45 -14z
m-1271 -14 c9 -3 16 -14 16 -24 0 -11 10 -20 25 -24 35 -9 21 -28 -18 -24 -32
3 -35 -1 -22 -34 11 -29 -8 -21 -48 20 l-38 39 27 26 c28 29 33 30 58 21z
m1300 -95 c-36 -37 -64 -50 -64 -30 0 14 83 80 93 74 5 -3 -8 -23 -29 -44z
m-1394 2 c0 -5 -7 -14 -15 -21 -12 -10 -13 -16 -5 -24 8 -8 15 -6 26 8 18 26
32 11 15 -16 -11 -18 -11 -22 3 -30 9 -5 16 -16 16 -24 0 -18 -19 -9 -68 33
l-34 28 22 28 c21 27 40 35 40 18z m1467 -26 c40 -28 34 -88 -12 -105 -31 -12
-59 0 -75 31 -15 27 -4 56 28 74 34 18 33 18 59 0z m-1478 -101 c34 -7 43 -24
12 -24 -22 0 -35 -30 -26 -60 3 -11 2 -20 -3 -20 -12 0 -82 85 -82 99 0 12 50
14 99 5z m1551 -16 c0 -7 -7 -22 -15 -32 -18 -24 -19 -40 -2 -33 6 3 20 8 30
12 36 15 15 -15 -25 -35 -70 -34 -89 -20 -46 35 21 27 21 28 3 23 -11 -3 -28
-9 -37 -13 -11 -4 -18 -3 -18 4 0 12 73 49 98 50 6 1 12 -5 12 -11z m-1677
-116 c-3 -15 6 -23 42 -37 59 -22 46 -42 -14 -20 -37 13 -43 13 -47 0 -7 -17
-24 -20 -24 -5 0 6 7 26 14 45 16 36 38 49 29 17z m1735 -26 c11 -21 11 -30 2
-41 -17 -20 -28 -10 -22 20 2 15 0 25 -7 25 -6 0 -11 -12 -11 -27 0 -41 -14
-57 -43 -49 -26 6 -42 42 -31 71 10 25 29 12 26 -17 -2 -15 2 -29 7 -33 7 -4
11 5 11 24 0 31 25 64 44 58 6 -2 17 -16 24 -31z m-1758 -95 c0 -6 -4 -13 -10
-16 -5 -3 -10 -14 -10 -23 0 -12 9 -7 30 18 24 29 32 33 47 24 34 -21 20 -94
-18 -94 -15 0 -10 27 6 34 18 7 20 36 2 36 -7 0 -17 -10 -22 -22 -12 -28 -52
-36 -61 -14 -9 24 4 66 21 66 8 0 15 -4 15 -9z m1782 -58 c22 -20 23 -56 2
-74 -14 -11 -15 -9 -12 22 3 32 1 34 -30 37 -39 4 -53 -20 -28 -47 21 -24 4
-38 -18 -15 -52 51 31 127 86 77z m-1812 -83 c0 -16 5 -30 10 -30 6 0 10 11
10 24 0 14 5 28 10 31 6 4 10 -7 10 -24 0 -24 4 -31 20 -31 16 0 20 7 20 30 0
17 5 30 11 30 6 0 9 -17 7 -42 l-3 -43 -57 -3 -58 -3 0 46 c0 25 5 45 10 45 6
0 10 -13 10 -30z m1814 -46 c19 -19 21 -67 4 -82 -34 -27 -93 -13 -102 24 -15
57 57 100 98 58z m-1745 -50 c42 -9 39 -27 -6 -44 l-38 -14 35 -10 c30 -8 54
-25 47 -32 -1 -1 -25 -12 -54 -23 -58 -23 -87 -10 -31 13 33 14 29 21 -16 28
-32 5 -29 27 6 42 l33 14 -32 7 c-72 16 -18 34 56 19z m1720 -80 c48 -10 37
-26 -16 -22 -43 3 -48 1 -51 -18 -3 -19 3 -23 42 -28 51 -8 62 -26 17 -26 -53
0 -81 16 -81 48 0 48 22 59 89 46z m-1649 -145 c6 -23 10 -42 8 -44 -3 -3 -97
-35 -102 -35 -6 0 -26 61 -26 76 0 26 18 14 25 -16 4 -16 10 -30 14 -30 16 0
20 13 10 32 -7 13 -7 24 -1 30 6 6 13 -2 20 -22 15 -42 36 -29 27 16 -9 49 12
43 25 -7z m1609 20 c50 -15 53 -36 6 -45 -41 -7 -45 -19 -10 -28 28 -7 34 -26
8 -25 -33 1 -88 26 -88 39 0 7 15 18 33 24 34 12 34 26 0 26 -10 0 -18 7 -18
16 0 10 6 14 14 11 8 -3 32 -11 55 -18z m-1579 -99 c0 -6 -7 -13 -15 -16 -17
-7 -20 -40 -5 -49 5 -3 19 -1 30 5 15 8 20 8 20 -3 0 -16 -88 -62 -98 -52 -4
4 1 12 11 20 25 18 11 48 -19 41 -43 -11 -35 13 13 38 54 28 63 30 63 16z
m1554 -45 c14 -37 -7 -75 -41 -75 -13 0 -12 4 6 23 26 28 19 55 -16 63 -29 8
-43 -8 -36 -37 3 -10 1 -19 -5 -19 -33 0 -24 66 11 79 26 10 71 -10 81 -34z
m-91 -82 c23 -15 44 -29 46 -30 3 -2 0 -7 -5 -13 -11 -10 -106 49 -98 62 7 12
10 11 57 -19z m-1393 -5 c0 -7 -13 -20 -29 -30 -20 -11 -31 -26 -33 -44 l-3
-28 -27 41 c-28 43 -28 59 2 41 14 -9 23 -7 45 10 31 25 45 28 45 10z m1363
-40 c20 -18 37 -36 37 -40 0 -15 -19 -8 -50 19 l-32 27 -18 -25 c-10 -13 -22
-21 -25 -17 -8 7 31 68 43 68 4 0 24 -15 45 -32z"/>
<path d="M2745 3427 c-4 -10 -5 -21 -1 -24 10 -10 18 4 13 24 -4 17 -4 17 -12
0z"/>
<path d="M2220 3336 c0 -9 5 -16 10 -16 6 0 10 4 10 9 0 6 -4 13 -10 16 -5 3
-10 -1 -10 -9z"/>
<path d="M3150 3245 c-10 -12 -10 -15 4 -15 9 0 16 7 16 15 0 8 -2 15 -4 15
-2 0 -9 -7 -16 -15z"/>
<path d="M2534 3220 c-216 -30 -409 -172 -508 -373 -24 -51 -50 -117 -57 -147
-18 -76 -16 -261 4 -333 62 -225 226 -401 447 -479 56 -19 84 -22 205 -22 126
0 147 3 213 26 101 36 174 82 247 153 116 114 182 247 206 415 15 109 2 214
-42 330 -39 102 -78 162 -163 245 -142 142 -353 212 -552 185z m426 -215 c16
-8 34 -24 40 -34 5 -11 10 -77 10 -146 0 -71 5 -135 11 -146 10 -20 11 -20 30
-3 33 29 23 -8 -10 -40 -41 -39 -70 -33 -98 22 -1 2 -19 -8 -40 -22 -76 -52
-142 -25 -150 60 -5 43 -2 54 22 82 14 17 57 46 93 63 37 18 70 37 74 42 9 15
-3 80 -19 95 -17 17 -74 12 -84 -8 -4 -8 -11 -32 -14 -52 -4 -27 -11 -38 -23
-38 -42 0 -54 43 -25 87 33 49 124 68 183 38z m-660 -5 c0 -5 -6 -10 -14 -10
-8 0 -18 -5 -21 -10 -9 -14 76 -261 86 -254 5 3 9 9 9 14 0 5 14 39 30 75 17
36 30 72 30 79 0 29 -31 85 -50 91 -44 14 -16 25 65 25 50 0 85 -4 85 -10 0
-5 -9 -10 -20 -10 -43 0 -35 -43 40 -235 l12 -30 10 25 c39 98 78 222 73 230
-3 6 -13 10 -21 10 -8 0 -14 5 -14 10 0 6 25 10 55 10 30 0 55 -3 55 -7 0 -5
-10 -18 -23 -29 -20 -19 -47 -88 -120 -301 -11 -35 -26 -63 -32 -63 -6 0 -25
42 -43 93 -44 124 -52 141 -59 133 -4 -4 -27 -57 -52 -119 -25 -61 -50 -112
-55 -112 -5 0 -22 38 -38 85 -78 223 -101 281 -119 291 -37 19 -18 29 56 29
43 0 75 -4 75 -10z m214 -404 c44 -18 83 -72 92 -124 l7 -42 -147 0 -146 0 0
-24 c0 -13 7 -43 15 -67 46 -130 184 -160 242 -52 10 18 21 33 25 33 27 0 -19
-97 -65 -137 -67 -58 -143 -56 -211 7 -55 51 -69 95 -65 203 4 76 7 90 34 129
52 75 143 106 219 74z m418 -24 c39 -23 64 -73 49 -100 -13 -24 -53 -30 -68
-9 -6 6 -13 25 -17 42 -11 43 -24 55 -60 55 -68 0 -106 -58 -106 -163 0 -75
35 -157 76 -175 60 -28 128 -6 159 52 32 59 47 46 20 -17 -35 -85 -101 -132
-173 -124 -55 6 -88 30 -126 90 -25 42 -29 56 -29 129 -1 98 14 141 69 192 58
55 140 66 206 28z"/>
<path d="M2898 2826 c-53 -23 -78 -56 -78 -101 0 -34 5 -44 24 -55 20 -10 31
-10 56 0 41 17 50 37 50 109 0 65 -4 69 -52 47z"/>
<path d="M2363 2548 c-23 -26 -43 -61 -43 -77 0 -7 34 -11 95 -11 92 0 95 1
95 23 0 22 -24 65 -44 79 -24 17 -82 8 -103 -14z"/>
<path d="M1973 3183 c-15 -5 -18 -43 -3 -43 12 0 32 38 23 43 -5 2 -14 2 -20
0z"/>
<path d="M3320 3055 c-18 -22 -8 -50 19 -50 28 0 47 25 38 49 -8 20 -40 21
-57 1z"/>
<path d="M1845 2950 c4 -6 11 -8 16 -5 14 9 11 15 -7 15 -8 0 -12 -5 -9 -10z"/>
<path d="M3457 2517 c-9 -24 16 -49 44 -45 18 2 24 9 24 28 0 21 -5 26 -31 28
-21 2 -33 -2 -37 -11z"/>
</g>
</svg>
